<?xml version="1.0" standalone="no"?>
<!DOCTYPE svg PUBLIC "-//W3C//DTD SVG 1.1//EN" "http://www.w3.org/Graphics/SVG/1.1/DTD/svg11.dtd" >
<svg>
<metadata>
Created by FontForge 20090622 at Mon Feb 13 10:18:54 2017
 By deploy user
Created with the help of MyScriptFont.com
Copyright belongs to the Creator.
</metadata>
<defs>
<font id="Lightning-Handmade-CAPS" horiz-adv-x="9" >
  <font-face 
    font-family="Lightning-Handmade-CAPS"
    font-weight="200"
    font-variant="small-caps"
    font-stretch="normal"
    units-per-em="1000"
    panose-1="2 0 3 3 0 0 0 0 0 0"
    ascent="800"
    descent="-200"
    x-height="748"
    cap-height="769"
    bbox="9.21429 -76 1010 802"
    underline-thickness="50"
    underline-position="-100"
    unicode-range="U+0020-U+20AC"
  />
<missing-glyph horiz-adv-x="364" 
d="M33 0v666h265v-666h-265zM66 33h199v600h-199v-600z" />
    <glyph glyph-name=".notdef" horiz-adv-x="364" 
d="M33 0v666h265v-666h-265zM66 33h199v600h-199v-600z" />
    <glyph glyph-name=".null" horiz-adv-x="0" 
 />
    <glyph glyph-name="nonmarkingreturn" horiz-adv-x="333" 
 />
    <glyph glyph-name="space" unicode=" " horiz-adv-x="420" 
 />
    <glyph glyph-name="exclam" unicode="!" horiz-adv-x="274" 
d="M10 789q0 8 19.5 9.5t107.5 1.5h128v-18q0 -77 -8.5 -284t-11.5 -210q-7 -7 -83.5 -28t-80.5 -17q-3 4 -37 266.5t-34 279.5zM118 179q4 6 59 6.5t58 -5.5q6 -10 10.5 -60t-0.5 -55q-3 -3 -31 -8.5t-56 -9t-31 -1.5q-4 2 -8.5 64.5t-0.5 68.5z" />
    <glyph glyph-name="quotedbl" unicode="&#x22;" horiz-adv-x="328" 
d="M17 782q3 14 10 16t42 2h13q29 1 35 -9t14 -69q0 -5 0.5 -7.5t1 -7t1.5 -8.5q10 -71 5 -77q-4 -4 -67 -6l-62 -2l2 75q2 79 5 93zM188 717l-4 83h115l12 -98q11 -97 7 -103q-4 -4 -60 8t-60 19q-7 8 -10 91z" />
    <glyph glyph-name="numbersign" unicode="#" horiz-adv-x="621" 
d="M178 799q1 1 81 1h81l-26 -46q-27 -45 -24 -48q2 -4 43 -7l40 -5l48 86h61q61 0 65 -5q3 -6 -6 -46q-7 -34 -2.5 -42t35.5 -18q29 -9 34.5 -16t-0.5 -28q-5 -19 -10 -27t-15 -11t-31 -3q-17 0 -25.5 -1.5t-15.5 -5.5t-17 -14q-22 -21 -22 -25t40 -9q33 -4 36.5 -12
t-10.5 -47l-11 -33l-93 -4l-80 -149h-44q-45 0 -48 3q-1 1 3.5 30.5l9 59.5t2.5 32q-4 5 -36 7l-32 2l-35 -105l-45 1q-45 3 -49 7q-5 5 4 54v5q8 39 3 49t-36 14q-30 5 -37 16t-2 45q5 30 13 36t62 16q17 3 23 7t6 11t-8 12t-31 11q-39 11 -41 21q-2 11 11 41q9 24 15 29
t29 9q40 7 53 17.5t23 43.5q11 40 11 41z" />
    <glyph glyph-name="dollar" unicode="$" horiz-adv-x="544" 
d="M359 775q47 25 70 25h24l-46 -96q-45 -95 -43 -101q2 -7 87 -45q84 -39 84 -47q0 -7 -256.5 -222.5t-259.5 -212.5q-4 4 75 187q80 184 77 193q-4 9 -83 64q-78 54 -78 62q-1 7 152 88z" />
    <glyph glyph-name="percent" unicode="%" horiz-adv-x="727" 
d="M48 782q16 14 27.5 16t56.5 1l63 -2l19 -32q40 -65 12.5 -119.5t-103.5 -59.5q-38 -3 -58 9t-39 49q-42 85 22 138zM258 544l237 256h77q78 0 78 -5t-261 -266l-260 -260l-51 7q-51 7 -54 10q-1 1 29.5 35.5l86.5 95.5zM559 550q45 14 82.5 4t58.5 -42q12 -18 15 -31
t3 -41q0 -37 -10.5 -57t-37.5 -36q-23 -14 -60 -16t-58 10q-24 12 -38.5 35t-17.5 49t2 51.5t21 45.5t40 28z" />
    <glyph glyph-name="ampersand" unicode="&#x26;" horiz-adv-x="1019" 
d="M10 -69.5q0 6.5 500 6.5t500 -6.5t-500 -6.5t-500 6.5z" />
    <glyph glyph-name="parenleft" unicode="(" horiz-adv-x="429" 
d="M143 750l10 50h250l10 -52q10 -51 7 -56q-3 -3 -51 -3t-53 -8q-6 -10 -42 -215.5t-33 -209.5q5 -4 37 -9q39 -4 41 -11t-31 -47l-40 -49h-117q-117 0 -121 6q-4 7 59 279l20.5 88.5l19 83.5l15.5 69l12 54t7 30z" />
    <glyph glyph-name="parenright" unicode=")" horiz-adv-x="458" 
d="M151 761v39h147q146 0 151 -6q1 -2 -21.5 -109l-51 -235l-53 -235t-27.5 -109q-3 -3 -74 9.5t-141 28t-71 19.5q-2 6 71 50l73 44l53 216q5 18 12 49q35 141 33 161q-3 16 -23 19q-3 1 -10 2q-8 1 -12 1q-39 6 -47.5 14t-8.5 42z" />
    <glyph glyph-name="asterisk" unicode="*" horiz-adv-x="375" 
d="M366 697q0 -4 -49 -28t-49 -27q0 -6 26 -41q22 -29 24 -38t-11 -21q-9 -8 -16.5 -6.5t-35.5 16.5q-39 22 -43 18t-8 -33q-4 -33 -12.5 -41.5t-38.5 -12.5q-37 -4 -42 -1q-3 3 8.5 47t9.5 46q-4 4 -44 -10q-36 -12 -47 -7.5t-20 34.5l-8 27l58 50l-27 28q-28 28 -28 35
t19 24.5t27 17.5q10 0 29 -13q22 -15 31.5 -12t16.5 26q6 18 10.5 21.5t18.5 2.5q10 -1 14.5 -3.5t7 -8.5t5.5 -21q6 -31 11 -31q4 0 45 19q38 20 48 20q7 0 38.5 -34.5t31.5 -42.5z" />
    <glyph glyph-name="plus" unicode="+" horiz-adv-x="461" 
d="M141 706q4 3 72 12t77 7q10 0 16 -51q7 -52 16 -56q8 -5 56 -14q45 -8 56.5 -15.5t15.5 -31.5q1 -8 1.5 -13.5t-0.5 -10.5t-5 -8t-9 -6t-15.5 -5l-21.5 -4t-29 -4q-62 -8 -72 -16q-10 -7 -19 -67q-8 -60 -13 -67q-4 -7 -49 -7t-49 6q-4 7 -10 57t-13 58q-3 4 -61.5 19
t-62.5 19q-5 7 -10 48q-4 35 4 44t54.5 17t54.5 15t8 38t8 36z" />
    <glyph glyph-name="comma" unicode="," horiz-adv-x="209" 
d="M21 290q2 5 44 41.5t47 36.5q3 1 45 -42l43 -42l-93 -93q-93 -93 -97 -90q-3 4 23 67l27 63l-21 26q-20 26 -18 33z" />
    <glyph glyph-name="hyphen" unicode="-" horiz-adv-x="322" 
d="M64 533q64 4 154.5 4.5t93.5 -4.5q3 -4 -5.5 -70.5t-12.5 -72.5q-4 -7 -138.5 -15t-140.5 -2t-5 81l2 75z" />
    <glyph glyph-name="period" unicode="." horiz-adv-x="188" 
d="M11 337q4 0 114 18q6 0 30 -43.5t24 -55.5q0 -6 -42 -25t-56 -19q-6 0 -25.5 30.5t-34.5 61.5t-10 33z" />
    <glyph glyph-name="slash" unicode="/" horiz-adv-x="401" 
d="M315 785q52 21 73 14q5 -2 3 -7q-1 -2 -12.5 -32l-34 -88l-42.5 -111q-87 -221 -94.5 -228.5t-101 -42t-96.5 -31.5q-4 3 133 257l138 255z" />
    <glyph glyph-name="zero" unicode="0" horiz-adv-x="458" 
d="M185 788q32 10 51.5 11t52.5 -6q89 -19 142 -173q6 -18 9 -29.5t5.5 -27t3 -31t0.5 -42.5q0 -72 -12.5 -110.5t-49.5 -78.5q-24 -26 -49 -42t-55.5 -23.5t-69.5 -7.5h-60l-36 35q-59 59 -87.5 147t-15 177t70.5 145l17 14.5t16.5 12t18.5 10.5t21.5 9.5t26.5 9.5z" />
    <glyph glyph-name="one" unicode="1" horiz-adv-x="380" 
d="M10 644q0 4 139 76.5t144 67.5t43 -288.5t35 -289.5t-158 -2q-153 5 -164 14q-9 9 -10 63v54l51 7q50 7 57 13q4 4 13.5 81t14.5 144v2q1 17 -10.5 22t-80.5 17q-7 1 -10 2q-64 12 -64 17z" />
    <glyph glyph-name="two" unicode="2" horiz-adv-x="421" 
d="M151 791q43 14 93 6t78 -32q23 -21 42 -60q24 -51 17.5 -112.5t-39.5 -97.5q-19 -21 -40.5 -59.5t-16.5 -43.5q6 -6 67 -27l60 -19l-2 -46q-2 -46 -7 -50q-3 -3 -105 -6.5t-188 -4t-100 2.5q0 6 93 98.5t90 95.5q-5 3 -50 17q-28 8 -41 15.5t-23 19.5q-43 57 -47.5 127
t31.5 119q27 38 88 57z" />
    <glyph glyph-name="three" unicode="3" horiz-adv-x="417" 
d="M56 797q0 3 176 3h176l-82 -101q-82 -103 -79 -110q4 -8 73 -37q70 -29 68 -37q-1 -6 -85 -75.5l-167.5 -134.5t-84.5 -61q-3 7 37 112q41 105 38 113t-60 37q-56 30 -56 36q0 5 59 97q59 89 59 96q0 5 -36 33t-36 29z" />
    <glyph glyph-name="four" unicode="4" horiz-adv-x="647" 
d="M254 525l201 217.5t63 56.5l16 1l-5 -159q-5 -160 3 -165q3 -2 52.5 -10t52.5 -11q6 -6 -19 -109l-26 -104l-75 -44q-76 -44 -80 -40q-3 5 -3 58q0 54 -6 57q-5 3 -210.5 -12t-207.5 -14q-2 4 244 278z" />
    <glyph glyph-name="five" unicode="5" horiz-adv-x="451" 
d="M182 794q42 5 149 5q110 0 111 -7q-6 -8 -51 -64l-44 -55l-37 2q-33 1 -60 5q-16 2 -22.5 -0.5t-15.5 -14.5q-7 -10 -16.5 -27.5t-16.5 -32.5t-7 -19q0 -5 38 -6q81 -2 132 -59q16 -19 25 -36t12 -35.5t1 -44.5q-5 -60 -48.5 -124t-87.5 -76q-51 -14 -103 1t-87.5 52.5
t-42.5 85.5q-4 30 9.5 75t36.5 77q26 37 20 41q-2 2 -9 2q-19 0 -18 14q0 19 46 120l54 117z" />
    <glyph glyph-name="six" unicode="6" horiz-adv-x="402" 
d="M150 665l85 134l41 1q41 0 41 -7l-13.5 -50t-25.5 -99.5t-11 -52.5q4 -6 29 -20q19 -9 37.5 -27t32.5 -40t20 -42q8 -29 6 -52.5t-17 -63.5q-24 -63 -79 -98t-119.5 -30t-114.5 50q-21 19 -32.5 37.5t-16 40t-2.5 49.5q2 36 27 84.5t112 185.5z" />
    <glyph glyph-name="seven" unicode="7" horiz-adv-x="465" 
d="M219 589q0 3 -88 47.5t-88 48.5q0 8 36 62l37 55l168 -5q166 -4 172 -9q3 -3 -164 -272.5t-179 -282.5q-9 -7 -41 -1q-40 7 -51 10.5t-11 9.5t104.5 169t104.5 168z" />
    <glyph glyph-name="eight" unicode="8" horiz-adv-x="370" 
d="M165 790q30 9 42 9t41 -9q84 -25 83 -117q0 -31 -4 -52.5t-14 -39t-27 -33.5q-29 -30 -29 -32q0 -3 26 -16q55 -28 72.5 -98.5t-15.5 -136.5q-30 -59 -99 -73.5t-145 21.5q-34 16 -56 47.5t-27 68.5t1.5 74t30 67.5t58.5 45.5q20 9 22 14t-12 14q-28 17 -35.5 68.5
t10.5 99.5q13 34 30 51.5t47 26.5z" />
    <glyph glyph-name="nine" unicode="9" horiz-adv-x="400" 
d="M98 785q18 10 36 12.5t73 2.5q72 0 94 -7t53 -41q37 -40 37.5 -82.5t-34.5 -121.5q-27 -60 -53 -153q-29 -95 -39 -105q-8 -8 -87.5 -43t-89.5 -35q-8 0 -4 12q7 22 28.5 114t21.5 101q0 11 -27 24q-23 11 -46.5 35.5t-37.5 52.5q-26 51 -1.5 128t76.5 106z" />
    <glyph glyph-name="colon" unicode=":" horiz-adv-x="150" 
d="M74 673q53 9 60 4t6 -43v-10q-2 -57 -4 -63q-2 -4 -28.5 0t-55.5 11.5t-37 13.5q-7 6 -4.5 35t10.5 38q6 7 53 14zM60 356q2 0 5 2l26 11t16 4t11 -0.5t4.5 -10.5t2.5 -17.5v-30.5v-6q0 -68 -3 -71q-4 -5 -43 6q-34 8 -45.5 21t-14.5 44l-2 29z" />
    <glyph glyph-name="semicolon" unicode=";" horiz-adv-x="208" 
d="M58 622q3 8 64 8q62 0 65 -3q5 -5 -3 -39.5t-15 -41.5q-8 -9 -56 -4l-48 6l-5 32q-5 34 -2 42zM27 361q18 53 24 53q7 0 77.5 -53.5t70.5 -58.5q0 -4 -35 -49.5l-71 -89t-40 -43.5q-2 0 -2 7.5t1 19.5l2 24t2.5 23.5t1.5 15.5q4 30 1 39t-23 30l-26 29z" />
    <glyph glyph-name="less" unicode="&#x3c;" horiz-adv-x="516" 
d="M231 657q214 97 225 97q10 0 31 -32l20 -34l-137 -189l117 -136l-17 -40q-10 -23 -16 -31t-13 -6t-54.5 29.5l-110.5 66l-124 77l-102.5 66t-39.5 29.5q6 5 221 103z" />
    <glyph glyph-name="equal" unicode="=" horiz-adv-x="378" 
d="M30 558q-6 6 -15.5 58.5t0.5 52.5q52 -3 199.5 -18t151.5 -18q5 -3 2 -33t-10 -44q-5 -9 -28.5 -10t-136.5 2q-157 5 -163 10zM49 472q3 9 90 5q114 -5 154.5 -9t43.5 -10q2 -8 -9 -44l-11 -36l-43 -3q-36 -4 -131 -7l-88 -3l-4 49q-5 48 -2 58z" />
    <glyph glyph-name="greater" unicode="&#x3e;" horiz-adv-x="459" 
d="M10 673q0 49 9 49q6 0 112 -36l211 -73.5t108 -40.5q1 -2 -26 -27.5t-68 -60.5l-82 -70.5l-71.5 -60t-33.5 -24.5q-5 0 -61 53l-56 52l55 51q53 51 53 55t-75 44l-75 40v49z" />
    <glyph glyph-name="question" unicode="?" horiz-adv-x="546" 
d="M55 785q10 11 35 13q26 2 176 2h198l17 -24q52 -76 55.5 -159t-43.5 -140q-14 -18 -98 -112l-74 -83l4 -113l-61 -11q-60 -12 -69 -10q-9 4 -21 53l-12 50l77 158q78 163 86 184q16 40 5.5 79t-39.5 50q-19 8 -53 4q-49 -3 -68 -39.5t4 -82.5q11 -22 6 -26
q-8 -7 -65 -39.5t-62 -32.5q-2 0 -5.5 3.5t-7 10t-7.5 15.5t-7 19l-6 21t-5 21q-11 53 0.5 106t39.5 83zM185 92q0 2 3 4.5t8 4.5t11 4l12.5 4t12 3.5t9.5 2.5t6 2q9 4 17 1t22 -15l20 -16l-35 -32q-34 -33 -41 -33q-6 0 -25.5 31t-19.5 39z" />
    <glyph glyph-name="at" unicode="@" horiz-adv-x="546" 
d="M218 690q226 119 235 107q0 -2 -47 -102q-29 -62 -36 -82t-1 -25q9 -8 88 -44q80 -35 80 -41q0 -8 -246 -213q-269 -225 -274 -221q-2 4 76 185t78 189t-81 66q-82 58 -80 65t208 116z" />
    <glyph glyph-name="A" unicode="A" horiz-adv-x="882" 
d="M386 704q24 43 31 40q6 -5 231 -344t225 -345q0 -7 -13 -7q-16 0 -393 -19.5t-413 -21.5q-44 -4 -44 3q0 10 376 694z" />
    <glyph glyph-name="B" unicode="B" horiz-adv-x="606" 
d="M11 760v1q2 5 32 -5.5t207 -79.5l84 -33q245 -95 247 -101q2 -7 -96 -77t-98 -77q0 -5 107 -99t103 -99q-4 -4 -269 -96q-158 -55 -212 -71.5t-59 -12.5q-4 5 -17 189.5t-23 370t-6 190.5z" />
    <glyph glyph-name="C" unicode="C" horiz-adv-x="633" 
d="M358 761q32 12 40.5 12t15.5 -12q14 -27 115 -371t95 -349q-6 -6 -45 -16.5t-84 -19.5q-51 -9 -120 -7t-115 14q-96 26 -159.5 88.5t-82.5 148.5q-33 159 62 302.5t278 209.5z" />
    <glyph glyph-name="D" unicode="D" horiz-adv-x="541" 
d="M39 768q31 5 46.5 4.5t64.5 -5.5q181 -20 288 -126q95 -96 93 -212t-101 -223q-63 -69 -152.5 -117.5t-191.5 -70.5q-46 -9 -55 -1q-9 9 -15 339q-8 321 -6 369l2 39z" />
    <glyph glyph-name="E" unicode="E" horiz-adv-x="632" 
d="M180 761q126 3 287 5q84 1 106 -0.5t26 -9.5q7 -15 17.5 -84.5t5.5 -73.5q-5 -5 -172 -28l-167 -22v-45l130 -8q129 -7 135 -13t5 -68l-2 -62l-75 -5q-69 -4 -118 -10q-32 -3 -37 -6t-4 -17q1 -20 13 -30q11 -11 116 -43t113 -39q9 -8 -6 -99q-3 -24 -7 -46t-7 -35
t-4 -15q-4 -4 -239 10t-241 19q-4 3 -16.5 180t-22 353.5t-5.5 180.5q6 6 169 11z" />
    <glyph glyph-name="F" unicode="F" horiz-adv-x="604" 
d="M181 761q127 3 288 5l126 1v-18q0 -22 -10.5 -98.5t-14.5 -79.5q-5 -5 -142 7q-138 12 -142 6q-6 -5 -3 -53l1 -48l76 -5q62 -4 134 -10l58 -5v-176l-78 -5q-43 -3 -73.5 -5.5t-50.5 -5t-29.5 -5.5t-8.5 -6q1 -7 6 -72l4 -65l-132 -64q-133 -65 -138 -58q-4 4 -26 373
q-21 368 -13 376q7 7 168 11z" />
    <glyph glyph-name="G" unicode="G" horiz-adv-x="769" 
d="M357 758q58 12 165 8t127 -19q7 -6 -30 -86q-41 -90 -72.5 -170t-28.5 -84q4 -4 118 -11q113 -6 120 -12q5 -6 4 -114l-2 -107l-29 2q-32 2 -41 5q-9 2 -12.5 -3t-8.5 -29q-4 -18 -32 -48t-52 -43q-47 -24 -119 -29.5t-122 11.5q-150 51 -241 156.5t-91 229.5q0 34 10 78
q22 95 111 165t226 100z" />
    <glyph glyph-name="H" unicode="H" horiz-adv-x="618" 
d="M27 743q4 5 89 17t97 11q9 0 10 -5q5 -11 17 -188l6 -69h137l20 255l91 -3q90 -2 105 -7q9 -4 10 -46.5t-6 -293.5q-8 -336 -12 -345q-2 -6 -15.5 -7t-56.5 2q-70 4 -76 10q-5 5 -15 99q-8 92 -12 96t-93 -10t-94.5 -19.5t-14.5 -110.5q-2 -17 -3.5 -33.5t-3 -30
t-2.5 -24t-2.5 -17t-1.5 -7.5q-4 -6 -93 -3.5t-96 8.5q-5 4 2 360t13 361z" />
    <glyph glyph-name="I" unicode="I" horiz-adv-x="272" 
d="M14 741l-4 28l116 -3q116 -4 123 -11q9 -8 13 -342.5t-4 -341.5q-3 -3 -24.5 -10t-47.5 -14t-50 -12.5t-31 -5.5q-8 0 -15.5 52.5t-34.5 289.5l-18.5 169.5l-16 145t-6.5 55.5z" />
    <glyph glyph-name="J" unicode="J" horiz-adv-x="582" 
d="M17 731q10 3 127 11.5t234 15.5t131 7l46 -1l11 -85q11 -86 7 -89q-4 -4 -93 -11q-87 -7 -94 -14q-6 -6 8.5 -210t9.5 -209q-8 -6 -199 -68.5t-194 -59.5t15.5 25.5l112.5 131.5l73 84l-4 60q-6 103 -8 141l-5 82h-183l-2 93q-1 93 7 96z" />
    <glyph glyph-name="K" unicode="K" horiz-adv-x="656" 
d="M321 679l72 82l85 -4q84 -4 90 -9q5 -4 -83 -151q-89 -145 -84 -150q2 -2 61.5 -54.5l119.5 -104.5t65 -57q3 -3 -21.5 -99t-29.5 -102q-4 -3 -30 21q-28 25 -148 140q-133 125 -140 125t-4 -21q12 -67 24 -171.5t9 -107.5q-7 -6 -128.5 -9.5t-125.5 1.5q-5 10 -26 360.5
t-16 355.5q6 6 86 17.5t84 7.5q1 -1 15 -39.5t29 -75.5t18 -37q6 0 78 82z" />
    <glyph glyph-name="L" unicode="L" horiz-adv-x="658" 
d="M12 753q3 8 127 8t127 -5t-12 -263t-12 -261q4 -4 170 -4h167l35 -101q35 -98 35 -109q0 -3 -12 -4.5t-46.5 -2.5t-97 -1h-162.5l-319 2l-2 366q-1 368 2 375z" />
    <glyph glyph-name="M" unicode="M" horiz-adv-x="738" 
d="M392 620q64 141 69 141q6 0 12 -18l158 -438.5t98 -280t-8 -6.5t-32 1q-3 0 -110.5 8.5l-231 18.5t-229 19.5t-108.5 12.5q-5 7 43 307q2 9 5 27q36 227 43 265t13 38q3 0 102 -118q98 -117 105 -117q1 0 11.5 18.5t26.5 52z" />
    <glyph glyph-name="N" unicode="N" horiz-adv-x="731" 
d="M12 694q-5 67 1 67t130 -112q321 -289 331 -292q4 -2 4 5q2 14 -21 192q-24 175 -19 182q4 6 115 3t118 -10q5 -5 31 -358q16 -221 19 -289.5t-3 -69.5q-8 -6 -314 -14.5t-311 -2.5t-40 306.5t-41 392.5z" />
    <glyph glyph-name="O" unicode="O" horiz-adv-x="806" 
d="M326 741q62 13 85 13q36 1 93.5 -8t78.5 -18q23 -10 49 -29.5t50 -43.5t45 -51t34 -52q14 -28 21.5 -51.5t11 -49.5t3.5 -59q0 -46 -3.5 -62.5t-18.5 -47.5q-19 -39 -49.5 -69.5t-75 -54.5t-103.5 -42q-40 -12 -67 -15t-105 -3l-114 -1l-46 28q-112 67 -166 168.5
t-34 207.5q36 184 311 240z" />
    <glyph glyph-name="P" unicode="P" horiz-adv-x="585" 
d="M217 760q35 7 102 6t102 -8q68 -15 100.5 -46t45.5 -95q18 -85 0.5 -135t-76.5 -79q-33 -16 -118 -41t-126 -30q-32 -5 -34 -12q-4 -9 10 -151t8 -148q-5 -5 -110 -1l-104 5l-5 343q-5 342 1 349q8 8 204 43z" />
    <glyph glyph-name="Q" unicode="Q" horiz-adv-x="780" 
d="M172 758q40 9 121 6.5t112 -12.5q45 -18 73 -48t44 -80q6 -20 17 -83.5t20 -126.5t9 -80v-35l102 -68q101 -68 101 -72q0 -6 -116 -7l-116 -2l-31 -62q-31 -63 -38 -63q-5 0 -26 32q-12 18 -18.5 24t-12.5 3q-55 -24 -114.5 -30t-104.5 7q-33 9 -65 39t-50 68
q-19 40 -34.5 100.5t-24.5 129t-10 131.5q0 56 2.5 76t11.5 41q22 46 57 72.5t91 39.5z" />
    <glyph glyph-name="R" unicode="R" horiz-adv-x="615" 
d="M11 754q2 5 66 -14l64 -19l63 10q53 9 151 18q107 9 159 -6.5t76 -64.5q7 -15 10 -27.5t4.5 -31t1.5 -61.5q0 -40 -1.5 -59.5t-4 -31t-9.5 -23.5q-20 -39 -58 -63t-88 -30q-32 -3 -36 -9q-3 -5 75 -155q78 -148 73 -154q-4 -4 -116 -3l-110 2l-33 54q-12 21 -24 37.5
t-15 16.5q-6 0 -25 -43q-18 -41 -27 -49q-5 -3 -159 -33q-8 -2 -11 -3q-8 -1 -10 10q-3 18 -4 208q-2 232 -8 370q-7 149 -4 154z" />
    <glyph glyph-name="S" unicode="S" horiz-adv-x="542" 
d="M229 649q210 112 218 112q9 0 -1 -26l-43 -96q-45 -93 -37 -100q7 -6 83 -40q74 -33 83 -41q3 -3 -6.5 -13.5t-39 -37l-77 -67l-129.5 -107.5l-130.5 -108.5l-95 -76.5t-36.5 -26q-2 6 77 189q79 182 79 186q0 3 -86 64l-42.5 30.5t-24.5 19.5t-10 11.5t1 6.5
q8 8 217 120z" />
    <glyph glyph-name="T" unicode="T" horiz-adv-x="754" 
d="M70 733q7 9 341 7l334 -2v-170q-127 -3 -255 -7l-2 -234l-1 -234l-15 -5q-10 -4 -94.5 -18.5t-109.5 -16.5q-7 -1 -9 9q-4 18 -7 228l-3 239l-119 2q-73 1 -96.5 3t-23.5 7q0 11 27.5 98t32.5 94z" />
    <glyph glyph-name="U" unicode="U" horiz-adv-x="631" 
d="M11 767q5 8 42 4q1 -1 45.5 -4.5l105 -8.5l133 -11.5t133.5 -12.5t103 -10.5t44 -7.5q7 -7 3 -202q-2 -164 -11.5 -230.5t-37.5 -122.5q-37 -73 -95.5 -102.5t-166.5 -29.5q-43 0 -59.5 3t-44.5 17q-84 42 -128 180.5t-62 421.5q-9 109 -4 116z" />
    <glyph glyph-name="V" unicode="V" horiz-adv-x="680" 
d="M330 747q332 27 339 24q1 0 1 -5q0 -10 -158.5 -370.5t-162.5 -360.5q-5 0 -172 335.5t-167 344.5q0 6 5 7q7 0 315 25z" />
    <glyph glyph-name="W" unicode="W" horiz-adv-x="700" 
d="M10 769q2 5 36 2q1 -1 30 -3.5l74 -6.5t103 -10t117 -11.5t116.5 -11.5l102.5 -11t73 -8.5t29 -4.5q3 -3 -21 -163l-50 -320.5t-30 -164.5l-1 -1q-1 -4 -17 17l-64 87l-1 1v1h-1l-1 1v1l-1 1l-1 1v1l-1 1l-1 1v1l-1 1l-1 1v1l-1 1h-1v1l-1 1l-1 1l-1 1v1l-1 1l-1 1v1
l-1 1l-1 1v1l-1 1l-1 1l-1 1v1l-1 1l-1 1v1l-1 1l-1 1l-1 1v1l-1 1l-1 1l-1 2q-118 159 -120 162q-4 6 -8.5 10.5t-8 6t-4.5 -0.5q-4 -4 -53 -186q-48 -182 -52 -182t-115 377.5t-108 382.5z" />
    <glyph glyph-name="X" unicode="X" horiz-adv-x="760" 
d="M10 751q0 5 71 0l285 -13q350 -15 350 -22q0 -4 -137.5 -131t-137.5 -134q0 -8 157 -193l109.5 -133t43.5 -58q-5 -3 -354.5 -11t-352.5 -5q-2 4 104 212l106 208l-122 137q-122 138 -122 143z" />
    <glyph glyph-name="Y" unicode="Y" horiz-adv-x="768" 
d="M463 758q285 10 294 6q3 -1 1 -6q-4 -10 -125 -197l-121 -185v-174q0 -173 -6 -173q-5 0 -127 69l-123 69l4 21q3 22 7 143l4 121l-130 139q-128 137 -131 144q-1 1 10 3q32 4 443 20z" />
    <glyph glyph-name="Z" unicode="Z" horiz-adv-x="875" 
d="M409 697q289 68 306 70q10 0 11.5 -1.5t-4.5 -9.5l-155 -187q-146 -176 -149 -183q-2 -4 0 -7.5t5 -4.5q443 -94 443 -96q0 -4 -87 -32l-420 -132q-236 -74 -292.5 -90.5t-56.5 -11.5q0 2 154 255l76.5 128l45 78t21.5 42t2 14q-8 9 -98 47q-90 37 -92 44q0 7 290 77z
" />
    <glyph glyph-name="bracketleft" unicode="[" horiz-adv-x="1019" 
d="M10 -69.5q0 6.5 500 6.5t500 -6.5t-500 -6.5t-500 6.5z" />
    <glyph glyph-name="bracketright" unicode="]" horiz-adv-x="1019" 
d="M10 -69.5q0 6.5 500 6.5t500 -6.5t-500 -6.5t-500 6.5z" />
    <glyph glyph-name="a" unicode="a" horiz-adv-x="882" 
d="M407 737q2 4 10 0q6 -4 231 -343.5t225 -345.5t-15 -6t-386 -19.5t-415 -22.5q-47 -4 -47 3q0 2 90 169l188 347.5z" />
    <glyph glyph-name="b" unicode="b" horiz-adv-x="605" 
d="M11 754v1q3 4 34 -7t214 -82l24 -9.5l23.5 -9l27.5 -10.5q245 -96 247 -102t-94 -75q-95 -68 -98 -76q-2 -7 94 -92q77 -68 96.5 -87t15.5 -23q-5 -5 -269 -95t-269 -89q-5 3 -28 375t-18 381z" />
    <glyph glyph-name="c" unicode="c" horiz-adv-x="633" 
d="M358 755q33 12 43 10q10 -1 37 -83q34 -101 112 -372.5t74 -274.5q-7 -8 -58 -21t-91 -19q-51 -6 -112 -3t-103 14q-96 26 -160 88t-82 148q-22 105 13.5 207t121 182.5t205.5 123.5z" />
    <glyph glyph-name="d" unicode="d" horiz-adv-x="541" 
d="M11 750q1 2 3 3.5t4.5 3t6 2.5t7.5 2t8.5 1.5t8.5 1t8.5 1t7.5 0.5t7 0.5t6 0.5q14 1 48 -2.5t71 -10t57 -12.5q147 -44 224 -153.5t45 -229.5q-27 -101 -125.5 -190.5t-232.5 -134.5q-46 -15 -88.5 -23t-48.5 -3q-5 5 -13 368.5t-4 374.5z" />
    <glyph glyph-name="e" unicode="e" horiz-adv-x="632" 
d="M183 780q128 4 287 6q82 1 103.5 -1t25.5 -9q7 -15 17.5 -84.5t5.5 -73.5q-5 -6 -173 -28l-166 -22v-46l130 -8q129 -7 135 -12.5t5 -68.5l-2 -61l-75 -5q-69 -5 -118 -10q-32 -4 -37 -7t-4 -17q1 -19 13 -30q11 -10 116 -42t113 -39q9 -8 -6 -99q-13 -89 -18 -96
q-3 -3 -121 3t-236.5 14t-122.5 12q-6 5 -28 356.5t-16 356.5q6 7 172 11z" />
    <glyph glyph-name="f" unicode="f" horiz-adv-x="603" 
d="M180 780q126 4 289 6l125 1v-18q0 -23 -10.5 -99.5t-14.5 -79.5q-4 -4 -142 7t-142 7q-6 -6 -3 -53l2 -48l67 -5q21 -2 134 -10l67 -5v-176l-79 -6q-43 -2 -73.5 -5t-50.5 -5.5t-29 -5t-9 -5.5q1 -7 6 -72l4 -66l-132 -64q-54 -26 -94.5 -43t-42.5 -15q-7 8 -27 375.5
t-14 373.5t169 11z" />
    <glyph glyph-name="g" unicode="g" horiz-adv-x="760" 
d="M364 780q59 10 158.5 5t115.5 -18q8 -6 -38 -109q-100 -224 -91 -231q4 -4 117 -11q113 -6 120 -13q6 -5 5 -113l-2 -108l-30 2q-32 3 -41 6q-4 0 -7 0.5t-5 -3.5t-4 -10.5t-5 -18.5q-4 -18 -31.5 -48t-52.5 -43q-44 -23 -114.5 -29t-119.5 8q-96 28 -180.5 95.5
t-123.5 147.5l-25 50v95q0 69 2.5 87.5t16.5 46.5q37 75 130 134t205 78z" />
    <glyph glyph-name="h" unicode="h" horiz-adv-x="619" 
d="M116 780q1 1 2 1q79 10 92.5 10.5t15.5 -5.5q3 -11 11 -133l9 -124h137l20 255l86 -3q86 -1 104 -6l17 -5l-1 -71q-1 -125 -8 -364.5t-10 -246.5q-2 -5 -15.5 -6t-56.5 2q-70 3 -76 9q-5 6 -15 99q-8 93 -12 97t-93 -10t-94.5 -19.5t-14.5 -110.5q-4 -43 -7.5 -76
t-5.5 -36t-30.5 -4t-62.5 0t-63.5 3t-32.5 5q-5 5 2 361t13 361q4 5 89 17z" />
    <glyph glyph-name="i" unicode="i" horiz-adv-x="272" 
d="M14 760l-4 29l116 -3q116 -4 123 -11q9 -9 13 -343t-4 -342q-6 -6 -72 -24t-81 -18q-8 0 -15.5 53t-34.5 289l-18.5 170l-16 144.5t-6.5 55.5z" />
    <glyph glyph-name="j" unicode="j" horiz-adv-x="582" 
d="M17 751q10 3 127 11.5t234 15.5t131 7l46 -1l11 -85q11 -86 7 -89q-4 -4 -93 -11q-87 -7 -94 -14q-6 -6 8.5 -210t9.5 -209q-8 -6 -199 -68.5t-194 -59.5t15.5 25l112.5 132l73 84l-4 60q-6 103 -8 141l-5 81h-183l-2 94q-1 93 7 96z" />
    <glyph glyph-name="k" unicode="k" horiz-adv-x="657" 
d="M400 505.5q0 -3.5 124 -114t124 -113.5q1 -10 -25 -103.5t-29 -93.5q-5 0 -157 143t-156 143q-3 2 -4.5 -3.5t0 -24.5t6 -50.5t11.5 -86.5q19 -131 15 -135q-3 -3 -130 -8q-126 -4 -128 4q-3 6 -25 357q-21 347 -13 355q8 9 58 16t81 8l31 1l27 -75q28 -75 33 -75
q6 0 72 75l68 75h192l-88 -145q-87 -146 -87 -149.5z" />
    <glyph glyph-name="l" unicode="l" horiz-adv-x="653" 
d="M11 433l-1 367h255v-18q0 -27 -14 -251q-14 -233 -10 -244q3 -7 30.5 -8t136.5 2l163 5l8 -15q6 -12 38.5 -107.5t24.5 -99.5q-9 -2 -318 -1l-311 2z" />
    <glyph glyph-name="m" unicode="m" horiz-adv-x="735" 
d="M438 776q12 25 23 23t140 -362q129 -359 124.5 -364t-356.5 24t-358 34q-7 7 43 320q50 312 53 316q4 4 37 -35l75 -88q91 -108 97 -110q2 -1 10 12t18.5 33.5l22.5 46l24.5 51.5l22.5 47.5l16.5 36t7.5 15.5z" />
    <glyph glyph-name="n" unicode="n" horiz-adv-x="729" 
d="M12 727q-3 68 2 72q2 1 7 0q13 -1 231 -196q216 -195 222 -195q7 0 3 25q-7 48 -18 133t-18.5 153t-6.5 71q3 4 118 0.5t119 -8.5t29 -357q25 -351 17 -359q-7 -7 -312 -16t-311 -3q-7 7 -41.5 294t-40.5 386z" />
    <glyph glyph-name="o" unicode="o" horiz-adv-x="802" 
d="M336 764q87 16 202 -4q38 -7 78.5 -33.5t75 -64t60.5 -84.5t35 -92q9 -39 6 -95q-2 -35 -6 -53.5t-15 -40.5q-29 -56 -90.5 -99t-146.5 -66q-33 -9 -63 -11.5t-100 -2.5l-111 -1l-41 22q-39 21 -85 63.5t-70 79.5q-25 37 -41 83q-10 30 -12.5 49.5t-0.5 61.5
q2 55 13 87.5t39 67.5q35 44 109 80t164 53z" />
    <glyph glyph-name="p" unicode="p" horiz-adv-x="581" 
d="M206 778q42 9 126.5 6.5t118.5 -13.5q32 -10 61 -35t41 -53q11 -25 16.5 -83.5t-0.5 -90.5q-9 -49 -82 -86t-220 -67l-58 -12l2 -34q0 -6 1.5 -22.5t3.5 -35t4.5 -46.5t4.5 -48q6 -65 6.5 -92.5t-3.5 -28.5q-7 -2 -108 3l-101 5l-4 92q-4 76 -5 344q0 177 1.5 216t9.5 43
q13 7 77 18z" />
    <glyph glyph-name="q" unicode="q" horiz-adv-x="783" 
d="M196 783q32 5 108 0.5t102 -12.5q91 -31 118 -141q12 -43 30 -156.5t16.5 -131t11 -29t89.5 -62.5q102 -68 103 -73q0 -5 -118 -5h-118l-33 -69q-32 -69 -34 -69q-4 0 -24 37q-12 21 -19 27.5t-13 3.5q-104 -43 -188 -29.5t-129 81.5q-25 37 -41 89t-31 142
q-11 63 -14 98.5t-1 83.5q2 51 5.5 70.5t14.5 41.5q16 33 42 54q17 15 54 29.5t69 19.5z" />
    <glyph glyph-name="r" unicode="r" horiz-adv-x="615" 
d="M13 671q-1 9 -1 25q-2 27 -2.5 37t1.5 22t4 14t11 3t16 -1.5t26 -7.5q4 -2 6 -2.5t5.5 -1.5t6.5 -2q41 -12 56 -13t63 6q49 8 103.5 13.5t96 7.5t64.5 0q38 -3 63 -16q43 -22 58.5 -59.5t15.5 -120.5q0 -53 -3 -70.5t-14 -41.5q-18 -36 -40 -53q-9 -6 -25 -13.5
t-33.5 -13.5t-34.5 -10t-28 -4q-18 0 -22 -6q-3 -5 75 -151l38.5 -74.5l29 -57.5t10.5 -23q0 -9 -114 -9h-114l-33 56q-33 55 -40 55q-6 0 -28 -48q-10 -21 -16 -31t-11.5 -14.5t-13.5 -6.5q-116 -22 -154 -26q-4 0 -6 7q-5 19 -8 260q-3 248 -8 371z" />
    <glyph glyph-name="s" unicode="s" horiz-adv-x="545" 
d="M231 668q221 118 225 118q6 1 -1.5 -18.5t-46.5 -103.5q-45 -95 -44 -101q3 -6 87 -44q85 -39 85 -47q0 -7 -256.5 -223t-260.5 -212q-3 4 75 186q79 180 79 191q-1 10 -81.5 65.5t-81.5 62.5q0 7 221 126z" />
    <glyph glyph-name="t" unicode="t" horiz-adv-x="754" 
d="M67 754q3 6 339 5l334 -1l4 -50q3 -49 0 -84l-4 -36q-127 -4 -255 -7l-2 -234l-1 -234l-15 -6q-6 -2 -48.5 -10.5t-88.5 -16t-60 -7.5q-7 -1 -10 9q-4 18 -7 228l-3 238l-118 2q-116 2 -122 7q-3 3 23 94t34 103z" />
    <glyph glyph-name="u" unicode="u" horiz-adv-x="632" 
d="M11 760.5q4 6.5 19 6.5q17 0 297.5 -23.5t286.5 -25.5q8 -3 8.5 -156.5t-6.5 -224.5q-8 -70 -22.5 -120.5t-37.5 -87.5t-57.5 -59.5t-79 -33t-104.5 -11.5q-34 0 -51 1.5t-29 4.5t-26 10q-70 35 -113 135t-65 278q-9 80 -16.5 190t-3.5 116.5z" />
    <glyph glyph-name="v" unicode="v" horiz-adv-x="676" 
d="M328 744q311 25 332 21q8 -2 6 -9q-5 -19 -161 -373t-159 -354q-4 0 -88.5 169l-167 340t-80.5 175q3 8 28 9q22 0 290 22z" />
    <glyph glyph-name="w" unicode="w" horiz-adv-x="700" 
d="M10 758q0 2 1.5 4.5t4.5 3.5t6 1q21 1 343.5 -30t325.5 -34q2 -2 -19.5 -143.5l-46.5 -300.5t-33 -202q-2 -10 -41 41q-27 34 -87 117q-117 160 -124 158q-6 -2 -55 -181q-47 -179 -50 -182t-6 0.5t-111 371t-108 376.5z" />
    <glyph glyph-name="x" unicode="x" horiz-adv-x="742" 
d="M10 742q0 6 18 6q27 0 192.5 -7.5t320.5 -15.5t157 -10q3 -2 -64.5 -68.5l-136.5 -132l-69 -65.5q0 -2 120 -148q181 -220 185 -229q2 -5 -11 -7q-17 -3 -73 -6q-124 -5 -364.5 -8t-243.5 1q-4 6 101 208q104 201 101 209q-3 7 -118 138q-115 129 -115 135z" />
    <glyph glyph-name="y" unicode="y" horiz-adv-x="766" 
d="M293 790q473 19 463 2q-5 -10 -124 -193l-120 -184v-174q0 -173 -6 -173q-5 0 -125 68q-78 44 -99 58.5t-21 24.5q0 2 0.5 11t1 23.5l1 30.5t1.5 38t1 41l5 129l-130 138q-129 138 -131 145q-2 5 39 6q37 0 244 9z" />
    <glyph glyph-name="z" unicode="z" horiz-adv-x="869" 
d="M717 797q0 -2 -154 -187t-154 -189q0 -6 24.5 -11.5t169.5 -35.5l40 -9q217 -45 217 -48q0 -4 -422 -136.5t-428 -130.5q-2 0 17.5 34.5l54.5 94l76 127.5l76.5 127.5l45 78.5t21.5 42t3 15q-8 8 -100 46q-91 39 -93 44q-1 7 278 74l153.5 36t101.5 21.5t55.5 9
t17.5 -2.5z" />
    <glyph glyph-name="braceleft" unicode="{" horiz-adv-x="544" 
d="M207 694q198 105 222 106h24l-46 -96q-45 -95 -43 -101q2 -7 87 -45q84 -39 84 -47q0 -7 -256.5 -222.5t-259.5 -212.5q-4 4 75 187q80 185 77 193t-83 64q-78 54 -78 62q0 2 26 17.5l72 41z" />
    <glyph glyph-name="bar" unicode="|" horiz-adv-x="1019" 
d="M10 -69.5q0 6.5 500 6.5t500 -6.5t-500 -6.5t-500 6.5z" />
    <glyph glyph-name="braceright" unicode="}" horiz-adv-x="545" 
d="M208 694q198 106 222 106h24l-46 -96q-45 -95 -44 -101q3 -7 87 -45q85 -39 85 -47q0 -4 -128 -113.5l-257.5 -216.5t-131.5 -105q-3 4 75 186q79 181 79 192q-1 9 -81.5 65t-81.5 63q0 2 26.5 17.5l72.5 41z" />
    <glyph glyph-name="asciitilde" unicode="~" horiz-adv-x="699" 
d="M20 463l59.5 45l109 79.5t64.5 41.5q11 2 63 -32q54 -32 67 -32q14 0 159 28q148 30 148 24q0 -1 -2 -3t-59.5 -38l-125.5 -78.5l-125.5 -78t-59.5 -36.5q-9 -3 -49 37l-41 39l-106 -7q-107 -6 -111 -2q-4 5 9 13z" />
    <glyph glyph-name="cent" unicode="&#xa2;" horiz-adv-x="1019" 
d="M10 -69.5q0 6.5 500 6.5t500 -6.5t-500 -6.5t-500 6.5z" />
    <glyph glyph-name="sterling" unicode="&#xa3;" horiz-adv-x="545" 
d="M360 775q46 25 70 25h24l-46 -96q-45 -95 -44 -101q3 -7 87 -45q85 -39 85 -47q0 -4 -128 -113.5l-257.5 -216.5t-131.5 -105q-3 4 75 186q79 181 79 192q-1 9 -81 65q-82 56 -82 63t152 88z" />
    <glyph glyph-name="section" unicode="&#xa7;" horiz-adv-x="1019" 
d="M10 -69.5q0 6.5 500 6.5t500 -6.5t-500 -6.5t-500 6.5z" />
    <glyph glyph-name="questiondown" unicode="&#xbf;" horiz-adv-x="1019" 
d="M10 -69.5q0 6.5 500 6.5t500 -6.5t-500 -6.5t-500 6.5z" />
    <glyph glyph-name="Agrave" unicode="&#xc0;" 
 />
    <glyph glyph-name="Aacute" unicode="&#xc1;" 
 />
    <glyph glyph-name="Acircumflex" unicode="&#xc2;" 
 />
    <glyph glyph-name="Adieresis" unicode="&#xc4;" 
 />
    <glyph glyph-name="Ccedilla" unicode="&#xc7;" 
 />
    <glyph glyph-name="Egrave" unicode="&#xc8;" 
 />
    <glyph glyph-name="Eacute" unicode="&#xc9;" 
 />
    <glyph glyph-name="Ecircumflex" unicode="&#xca;" 
 />
    <glyph glyph-name="Edieresis" unicode="&#xcb;" 
 />
    <glyph glyph-name="Icircumflex" unicode="&#xce;" 
 />
    <glyph glyph-name="Idieresis" unicode="&#xcf;" 
 />
    <glyph glyph-name="Ntilde" unicode="&#xd1;" 
 />
    <glyph glyph-name="Oacute" unicode="&#xd3;" 
 />
    <glyph glyph-name="Ocircumflex" unicode="&#xd4;" 
 />
    <glyph glyph-name="Odieresis" unicode="&#xd6;" 
 />
    <glyph glyph-name="Ugrave" unicode="&#xd9;" 
 />
    <glyph glyph-name="Uacute" unicode="&#xda;" 
 />
    <glyph glyph-name="Ucircumflex" unicode="&#xdb;" 
 />
    <glyph glyph-name="Udieresis" unicode="&#xdc;" 
 />
    <glyph glyph-name="germandbls" unicode="&#xdf;" 
 />
    <glyph glyph-name="agrave" unicode="&#xe0;" 
 />
    <glyph glyph-name="aacute" unicode="&#xe1;" 
 />
    <glyph glyph-name="acircumflex" unicode="&#xe2;" 
 />
    <glyph glyph-name="adieresis" unicode="&#xe4;" 
 />
    <glyph glyph-name="ccedilla" unicode="&#xe7;" 
 />
    <glyph glyph-name="egrave" unicode="&#xe8;" 
 />
    <glyph glyph-name="eacute" unicode="&#xe9;" 
 />
    <glyph glyph-name="ecircumflex" unicode="&#xea;" 
 />
    <glyph glyph-name="edieresis" unicode="&#xeb;" 
 />
    <glyph glyph-name="icircumflex" unicode="&#xee;" 
 />
    <glyph glyph-name="idieresis" unicode="&#xef;" 
 />
    <glyph glyph-name="oacute" unicode="&#xf3;" 
 />
    <glyph glyph-name="ocircumflex" unicode="&#xf4;" 
 />
    <glyph glyph-name="odieresis" unicode="&#xf6;" 
 />
    <glyph glyph-name="ugrave" unicode="&#xf9;" 
 />
    <glyph glyph-name="uacute" unicode="&#xfa;" 
 />
    <glyph glyph-name="ucircumflex" unicode="&#xfb;" 
 />
    <glyph glyph-name="udieresis" unicode="&#xfc;" 
 />
    <glyph glyph-name="eogonek" unicode="&#x119;" horiz-adv-x="1019" 
d="M10 -69.5q0 6.5 500 6.5t500 -6.5t-500 -6.5t-500 6.5z" />
    <glyph glyph-name="quoteright" unicode="&#x2019;" horiz-adv-x="177" 
d="M15 782l-5 18h79q79 0 79 -3q0 -5 -54 -73t-58 -68q-3 0 -18 44.5t-23 81.5z" />
    <glyph glyph-name="quotedblleft" unicode="&#x201c;" horiz-adv-x="413" 
d="M232 297q0 7 35 59t42 52t46.5 -23.5t46.5 -32.5q5 -5 -5 -26t-41 -74q-55 -93 -59 -93q-12 0 -12 63q0 24 -4 31.5t-23 20.5q-26 18 -26 23zM10 313q0 7 38.5 44.5t44.5 37.5q10 0 50 -31t40 -39q0 -5 -39 -55.5t-78.5 -96.5t-40.5 -42q-3 8 14 68l17 61l-23 24
q-23 24 -23 29z" />
    <glyph glyph-name="quotedblright" unicode="&#x201d;" horiz-adv-x="347" 
d="M41 780q4 11 11.5 12.5t42.5 -1.5q46 -5 51 -10q3 -2 0 -54.5t-8.5 -105t-8.5 -55.5q-3 -2 -59 22t-60 30q-2 4 11 75t20 87zM220 786q3 6 41 -1t46 -14q6 -6 20 -93t10 -94q-3 -6 -62.5 -9.5t-64.5 1.5q-5 4 0 103t10 107z" />
    <glyph glyph-name="bullet" unicode="&#x2022;" horiz-adv-x="1019" 
d="M10 -69.5q0 6.5 500 6.5t500 -6.5t-500 -6.5t-500 6.5z" />
    <glyph glyph-name="Euro" unicode="&#x20ac;" horiz-adv-x="544" 
d="M207 694q198 105 222 106h24l-46 -96q-45 -95 -43 -101q2 -7 87 -45q84 -39 84 -47q0 -7 -256.5 -222.5t-260.5 -212.5q-3 4 76 187q80 185 77 193t-83 64q-78 54 -78 62q0 2 26 17.5l72 41z" />
  </font>
</defs>
</svg>
